PathFileType	4	(X/Y/Z)	D:\RESEARCH\STW_dataset\Extracted\S23\S23\Mocap\trcResults\stw1.trc
DataRate	CameraRate	NumFrames	NumMarkers	Units	OrigDataRate	OrigDataStartFrame	OrigNumFrames
200.000000	200.000000	4	32	M	200.000000	798	1065
Frame#	Time	RASIS			LASIS			RPSIS			LPSIS			RTH1			RTH2			RTH3			RTH4			RFLE			LTH1			LTH2			LTH3			LTH4			LFLE			RSK1			RSK2			RSK3			RSK4			RFAL			LSK1			LSK2			LSK3			LSK4			LFAL			RFCC			RFMT1			RFMT2			RFMT5			LFCC			LFMT1			LFMT2			LFMT5			
		X1	Y1	Z1	X2	Y2	Z2	X3	Y3	Z3	X4	Y4	Z4	X5	Y5	Z5	X6	Y6	Z6	X7	Y7	Z7	X8	Y8	Z8	X9	Y9	Z9	X10	Y10	Z10	X11	Y11	Z11	X12	Y12	Z12	X13	Y13	Z13	X14	Y14	Z14	X15	Y15	Z15	X16	Y16	Z16	X17	Y17	Z17	X18	Y18	Z18	X19	Y19	Z19	X20	Y20	Z20	X21	Y21	Z21	X22	Y22	Z22	X23	Y23	Z23	X24	Y24	Z24	X25	Y25	Z25	X26	Y26	Z26	X27	Y27	Z27	X28	Y28	Z28	X29	Y29	Z29	X30	Y30	Z30	X31	Y31	Z31	X32	Y32	Z32	

799	3.99	0.6454369506835937	0.9271475219726563	-0.08794760894775386	0.61549853515625	0.9121067504882813	-0.3746974487304687	0.4533340148925781	0.9681000366210938	-0.1829483489990234	0.4499656372070313	0.9653795776367188	-0.2363206787109375	0.5857674560546875	0.6923480224609375	-0.03488207626342769	0.6653524169921875	0.720483642578125	-0.03380091094970699	0.7042034912109375	0.6319443359375	-0.03900347900390622	0.62584130859375	0.6007565307617188	-0.0402988471984863	0.7307960815429687	0.4625306091308594	-0.06268589019775388	0.5102166137695313	0.6748050537109375	-0.4067745361328124	0.5877233276367188	0.6651018676757813	-0.3880479125976562	0.5702476806640625	0.5655579223632813	-0.3714840393066406	0.4874821472167969	0.57755517578125	-0.3881506652832031	0.4296906127929688	0.4237607421875	-0.3695238647460938	0.7195270385742187	0.3665350341796875	-0.0447669982910156	0.7824027709960938	0.3675167846679688	-0.05815186691284178	0.7868328857421876	0.2790020751953125	-0.06223760604858397	0.7264965209960937	0.2745693054199219	-0.04973733520507811	0.7716570434570312	0.05402965927124024	-0.08337191772460938	0.318315185546875	0.3104914245605469	-0.3722876892089844	0.3743504943847656	0.2879830932617188	-0.3663587341308594	0.333442626953125	0.2039143218994141	-0.350364990234375	0.2916192626953125	0.2299877319335938	-0.3649046020507812	0.2139009399414062	0.08244730377197267	-0.3442060241699219	0.7329232788085938	0.02163485527038575	-0.1443717346191406	0.9378927612304687	0.04512036895751954	-0.1109849014282227	0.9193150024414063	0.03949379348754883	-0.07002567291259766	0.8809976196289062	0.01702021980285645	-0.04414852905273438	0.1631884765625	0.09315493774414065	-0.2832366943359375	0.3390066528320312	0.01713223075866701	-0.2928417053222656	0.3269597778320313	0.01710150718688967	-0.337115234375	0.2981467895507813	0.001723727226257347	-0.3752639465332031	
800	3.995	0.6511777954101563	0.927129150390625	-0.08703085327148433	0.6214464721679688	0.9121552124023438	-0.3736826477050781	0.4589419860839844	0.9679025268554687	-0.1817577514648437	0.4562052917480469	0.9650534057617187	-0.2353320159912109	0.5917360229492188	0.6927132568359375	-0.03475471496582027	0.6713897094726563	0.7203984985351563	-0.03301163482666011	0.7102855224609376	0.6319190063476563	-0.03840130996704098	0.6318182983398437	0.6003707885742188	-0.04018452835083004	0.7368707885742187	0.462904541015625	-0.06260797882080076	0.5161871337890626	0.67475830078125	-0.4060793151855469	0.5938707885742187	0.6650941162109375	-0.3873361511230468	0.5766578369140625	0.5653075561523437	-0.3709594421386718	0.4937738342285156	0.5775701904296875	-0.38746923828125	0.4357134094238281	0.4238382263183594	-0.3691943969726563	0.7249727172851562	0.36696044921875	-0.04430867385864256	0.7883204345703125	0.3676170959472657	-0.0575889320373535	0.7912973022460937	0.278648193359375	-0.06199381256103514	0.7313535156250001	0.2751551208496094	-0.04886833572387694	0.7736448974609376	0.05367964935302735	-0.08285501098632812	0.3235038757324219	0.3120452880859375	-0.3721830139160157	0.3790861206054688	0.288714111328125	-0.3662070007324219	0.3372982788085938	0.2050489959716797	-0.3503992004394531	0.2951644592285156	0.2315066375732422	-0.364493408203125	0.2162639312744141	0.08509955596923829	-0.3442852783203125	0.7345051879882812	0.02257367134094239	-0.1436331329345703	0.9407351684570313	0.04367595291137696	-0.1100238418579102	0.9202503051757813	0.03740208053588868	-0.06988591766357422	0.8824086303710937	0.01494553947448731	-0.04352698516845703	0.1658526916503906	0.09681934356689455	-0.2831307983398438	0.3398607177734375	0.01716579818725588	-0.2930119323730469	0.3276959838867188	0.01713133049011233	-0.3372785339355469	0.2984244995117187	0.001899737119674706	-0.3750730895996094	
801	4	0.6570818481445313	0.9273212280273437	-0.08623960113525385	0.6271805419921875	0.9124017944335938	-0.3727596740722656	0.4648583984375	0.9679635620117187	-0.1808267211914062	0.4616806640625	0.9649819946289063	-0.2343677978515624	0.5977490844726563	0.6928282470703125	-0.03447882080078121	0.6773386840820312	0.7203969116210938	-0.03225762939453121	0.7166270751953125	0.6322587890625	-0.03787799835205075	0.6376134643554687	0.6007833862304688	-0.04018002319335934	0.7430889892578125	0.46333935546875	-0.06242097091674802	0.5222244262695312	0.67495849609375	-0.4050205993652343	0.6000796508789062	0.6655415649414063	-0.3867920227050781	0.5829707641601563	0.5656580810546875	-0.3706447143554687	0.5003166198730469	0.5774119262695313	-0.3870148925781249	0.4425245971679688	0.4240721740722656	-0.3688733520507813	0.7308514404296875	0.3675608520507813	-0.04422344589233396	0.7936664428710938	0.3673638916015625	-0.05771448516845701	0.7963063354492188	0.2787309265136719	-0.06181983566284178	0.7366078491210938	0.276132080078125	-0.04835235977172851	0.7755989379882813	0.05352345657348634	-0.08235085296630859	0.3284151306152344	0.3132865905761719	-0.3725896606445313	0.3823888854980469	0.2880077209472656	-0.3654407043457031	0.3412048034667969	0.2061425476074219	-0.35038916015625	0.2991885070800782	0.2330599212646485	-0.3642724304199219	0.2183342742919922	0.08806941223144533	-0.3443435974121094	0.7363732299804687	0.02270494461059571	-0.1436640014648438	0.9424703369140626	0.04152660369873048	-0.1100758666992187	0.9219093627929688	0.03524699783325196	-0.06955878448486329	0.8834954223632813	0.01355733489990235	-0.04284151840209961	0.1686483917236328	0.1005947570800781	-0.282655517578125	0.3407796936035156	0.01710061073303224	-0.2931190795898437	0.3284793701171875	0.01717298126220705	-0.3373683776855469	0.2986774291992187	0.002067925453186058	-0.3748176574707031	
802	4.005	0.6628079833984375	0.9275129394531251	-0.08525405120849604	0.6333370971679687	0.912859130859375	-0.3716546630859375	0.4702402038574219	0.96812109375	-0.1796122894287109	0.4671557006835937	0.9651077270507813	-0.2334122161865234	0.6036988525390625	0.692634765625	-0.03386695098876949	0.6832858276367187	0.7206683349609375	-0.03175143051147457	0.7227212524414063	0.6325347900390625	-0.0373802680969238	0.643697021484375	0.6010125122070312	-0.04006734848022458	0.7492181396484375	0.4639929504394532	-0.06217607498168943	0.5286808471679688	0.6751112060546876	-0.4040793151855469	0.6064801025390625	0.6657229614257812	-0.3858709716796874	0.5898873901367188	0.56593994140625	-0.36986962890625	0.50697607421875	0.5775604858398438	-0.3860409851074219	0.4495971069335938	0.4241210327148437	-0.3686546325683594	0.7367713012695313	0.3681959533691406	-0.04310117340087889	0.7994747924804688	0.3676201171875	-0.0577654113769531	0.8014241333007812	0.2789567260742187	-0.06157996749877928	0.741666015625	0.2763586120605469	-0.04745928573608397	0.7775631103515626	0.05359232711791993	-0.08176697540283204	0.3348273620605469	0.3147041625976563	-0.3713087158203125	0.395393798828125	0.2915263061523438	-0.370001708984375	0.3457031555175781	0.207446517944336	-0.350432373046875	0.3033485717773438	0.2345578308105469	-0.3637167663574219	0.2206642608642578	0.09094556427001954	-0.3442356872558594	0.7374972534179688	0.02323075866699219	-0.1429452056884766	0.94305517578125	0.03807296752929688	-0.1104792251586914	0.9243712768554687	0.03319529724121095	-0.06940978240966797	0.8847112426757813	0.0117139368057251	-0.04191294860839844	0.1714222106933594	0.1046882858276367	-0.2825220031738281	0.3416363830566406	0.01696406173706056	-0.29318701171875	0.3292348022460937	0.01725170516967776	-0.3374254455566406	0.2989087829589844	0.002317743301391625	-0.3744973754882813	
